#!OML:ASF H:\BabyWalks\Project 1\Capture day 1\Session 1\baby.ASF
:FULLY-SPECIFIED
:DEGREES
376
root -12.7049 17.455 -0.240053 204.054 62.0522 201.502
lowerback 18.6805 2.54591 4.28764
upperback 3.13193 4.69516 2.475
thorax -6.93485 2.32837 -0.91858
lowerneck -2.26638 -2.09539 6.67366
upperneck 4.87149 -2.94481 -1.88202
head 1.79892 -1.37299 -1.8088
rclavicle -2.91716e-014 -1.78906e-015
rhumerus -49.9212 0.145903 -75.9736
rradius 48.8187
rwrist -4.6122
rhand -11.9232 -18.3247
rfingers 7.12502
rthumb 14.131 -47.8242
lclavicle -2.91716e-014 -1.78906e-015
lhumerus -48.5758 -9.26963 54.9768
lradius 60.5381
lwrist 0.0275127
lhand -3.72786 1.9468
lfingers 7.12502
lthumb 22.0153 30.7138
rfemur -1.75148 -3.13773 23.5687
rtibia 33.7884
rfoot -12.7913 7.69218
rtoes -30.8912
lfemur -25.9285 -6.357 -11.5906
ltibia 46.8866
lfoot -24.8246 -17.1029
ltoes 16.1327
377
root -12.6026 17.4477 -0.299148 203.744 61.7788 201.193
lowerback 18.6389 2.50487 3.94043
upperback 3.15477 4.55156 2.31324
thorax -6.90574 2.26438 -0.860055
lowerneck -2.22132 -2.28881 6.34316
upperneck 4.63249 -3.21394 -1.23679
head 1.71182 -1.50318 -1.53992
rclavicle 2.85256e-014 1.21259e-014
rhumerus -49.7673 0.344036 -76.1322
rradius 48.7599
rwrist -4.53132
rhand -11.6051 -18.271
rfingers 7.12502
rthumb 14.4375 -47.7488
lclavicle 2.85256e-014 1.21259e-014
lhumerus -47.4738 -9.11877 54.4565
lradius 60.7868
lwrist 0.219102
lhand -4.09173 1.90369
lfingers 7.12502
lthumb 21.6659 30.7114
rfemur -2.10533 -2.67246 23.0853
rtibia 35.0818
rfoot -11.8368 9.23241
rtoes -30.6869
lfemur -25.2994 -6.58755 -11.7496
ltibia 46.5721
lfoot -25.4251 -17.0008
ltoes 16.396
378
root -12.502 17.4389 -0.357207 203.27 61.5308 200.697
lowerback 18.6184 2.45831 3.50682
upperback 3.18433 4.38341 2.12993
thorax -6.88521 2.1899 -0.771028
lowerneck -2.15769 -2.46763 6.03585
upperneck 4.34911 -3.4592 -0.619231
head 1.61112 -1.6231 -1.28554
rclavicle -6.5102e-014 -1.47101e-014
rhumerus -49.6107 0.51202 -76.2851
rradius 48.7205
rwrist -4.47448
rhand -11.3603 -18.2368
rfingers 7.12502
rthumb 14.6734 -47.6976
lclavicle -6.5102e-014 -1.47101e-014
lhumerus -46.3185 -8.92851 54.012
lradius 61.0086
lwrist 0.357119
lhand -4.46054 1.8282
lfingers 7.12502
lthumb 21.3117 30.6764
rfemur -2.5603 -2.11971 22.5117
rtibia 36.4946
rfoot -11.0388 10.5859
rtoes -30.1782
lfemur -24.6837 -6.83859 -11.9976
ltibia 46.244
lfoot -25.9663 -16.9593
ltoes 16.609
379
root -12.4027 17.4293 -0.413699 202.636 61.2968 200.018
lowerback 18.6184 2.40531 2.98907
upperback 3.21927 4.19014 1.92534
thorax -6.87355 2.10468 -0.652053
lowerneck -2.06967 -2.6329 5.75519
upperneck 4.02054 -3.68129 -0.028946
head 1.49511 -1.73324 -1.04556
rclavicle -4.95968e-014 -3.02153e-014
rhumerus -49.4554 0.658819 -76.4422
rradius 48.699
rwrist -4.4494
rhand -11.2092 -18.2241
rfingers 7.12502
rthumb 14.819 -47.6743
lclavicle -4.95968e-014 -3.02153e-014
lhumerus -45.1126 -8.71519 53.646
lradius 61.2107
lwrist 0.423925
lhand -4.83264 1.73532
lfingers 7.12502
lthumb 20.9542 30.6235
rfemur -3.10856 -1.49343 21.8577
rtibia 38.0034
rfoot -10.4962 11.7159
rtoes -29.4037
lfemur -24.0883 -7.09172 -12.3397
ltibia 45.9157
lfoot -26.4389 -16.9777
ltoes 16.7969
380
root -12.3043 17.4194 -0.468243 201.864 61.0613 199.177
lowerback 18.6331 2.34366 2.38863
upperback 3.26265 3.97017 1.71071
thorax -6.86404 2.0085 -0.490838
lowerneck -1.95748 -2.78487 5.4909
upperneck 3.64879 -3.87998 0.534988
head 1.36437 -1.83381 -0.817581
rclavicle -3.00165e-014 -5.56597e-015
rhumerus -49.2949 0.806554 -76.6039
rradius 48.6856
rwrist -4.4477
rhand -11.167 -18.2317
rfingers 7.12502
rthumb 14.8596 -47.6788
lclavicle -3.00165e-014 -5.56597e-015
lhumerus -43.8587 -8.47194 53.3636
lradius 61.3928
lwrist 0.419045
lhand -5.16665 1.59486
lfingers 7.12502
lthumb 20.6333 30.5182
rfemur -3.73722 -0.813565 21.1426
rtibia 39.5781
rfoot -10.2669 12.5912
rtoes -28.381
lfemur -23.5192 -7.33138 -12.768
ltibia 45.5965
lfoot -26.8366 -17.0424
ltoes 16.9787
381
root -12.2068 17.4097 -0.520517 200.989 60.8048 198.21
lowerback 18.6646 2.27749 1.73631
upperback 3.30897 3.73489 1.48345
thorax -6.86003 1.90605 -0.31016
lowerneck -1.82461 -2.93427 5.26757
upperneck 3.24115 -4.07011 1.06709
head 1.22076 -1.93189 -0.607479
rclavicle 1.27222e-014 -3.18055e-015
rhumerus -49.1418 0.917952 -76.7697
rradius 48.6754
rwrist -4.44946
rhand -11.2076 -18.2676
rfingers 7.12502
rthumb 14.8205 -47.7176
lclavicle 1.27222e-014 -3.18055e-015
lhumerus -42.539 -8.2446 53.169
lradius 61.5592
lwrist 0.337348
lhand -5.47925 1.44973
lfingers 7.12502
lthumb 20.3329 30.4053
rfemur -4.43757 -0.116844 20.3896
rtibia 41.1832
rfoot -10.3866 13.1825
rtoes -27.2193
lfemur -22.9888 -7.54921 -13.2617
ltibia 45.2932
lfoot -27.1563 -17.1494
ltoes 17.1788
382
root -12.1102 17.4004 -0.570778 200.057 60.5102 197.165
lowerback 18.7074 2.1935 1.05106
upperback 3.36124 3.47178 1.25783
thorax -6.85442 1.7914 -0.101957
lowerneck -1.69229 -3.07279 5.05828
upperneck 2.82195 -4.24191 1.57364
head 1.07619 -2.02228 -0.409083
rclavicle -1.63003e-014 4.25399e-014
rhumerus -48.9824 1.03912 -76.9435
rradius 48.6623
rwrist -4.4313
rhand -11.3199 -18.3261
rfingers 7.12502
rthumb 14.7123 -47.7841
lclavicle -1.63003e-014 4.25399e-014
lhumerus -41.1759 -8.00703 53.0646
lradius 61.7132
lwrist 0.196107
lhand -5.75528 1.28973
lfingers 7.12502
lthumb 20.0676 30.2734
rfemur -5.19916 0.568009 19.6236
rtibia 42.7805
rfoot -10.8237 13.4933
rtoes -26.2866
lfemur -22.4999 -7.75002 -13.7935
ltibia 45.0113
lfoot -27.4087 -17.294
ltoes 17.3912
383
root -12.0143 17.3923 -0.619548 199.136 60.163 196.117
lowerback 18.7565 2.09031 0.371396
upperback 3.42136 3.18775 1.04626
thorax -6.83988 1.66734 0.123997
lowerneck -1.58021 -3.20325 4.86176
upperneck 2.4126 -4.40113 2.05302
head 0.940275 -2.10715 -0.223182
rclavicle -4.65156e-014 3.33958e-014
rhumerus -48.8125 1.17016 -77.1204
rradius 48.6412
rwrist -4.37831
rhand -11.4923 -18.3968
rfingers 7.12502
rthumb 14.5462 -47.8668
lclavicle -4.65156e-014 3.33958e-014
lhumerus -39.7653 -7.76989 53.0568
lradius 61.8568
lwrist 0.002081
lhand -5.99909 1.12773
lfingers 7.12502
lthumb 19.8332 30.1358
rfemur -6.01293 1.22397 18.8828
rtibia 44.3301
rfoot -11.4794 13.558
rtoes -25.5616
lfemur -22.0553 -7.94278 -14.3179
ltibia 44.7598
lfoot -27.6077 -17.4755
ltoes 17.601
384
root -11.9191 17.3853 -0.667145 198.299 59.7501 195.142
lowerback 18.8091 1.96426 -0.257788
upperback 3.48551 2.88709 0.855786
thorax -6.81664 1.53485 0.348759
lowerneck -1.5004 -3.32927 4.67839
upperneck 2.03074 -4.55431 2.50749
head 0.82003 -2.18895 -0.0493784
rclavicle 3.67752e-014 2.38542e-015
rhumerus -48.6368 1.30624 -77.2972
rradius 48.6143
rwrist -4.27412
rhand -11.6984 -18.4745
rfingers 7.12502
rthumb 14.3476 -47.9587
lclavicle 3.67752e-014 2.38542e-015
lhumerus -38.3068 -7.55131 53.1446
lradius 61.9913
lwrist -0.221552
lhand -6.21505 0.974761
lfingers 7.12502
lthumb 19.6256 30.0041
rfemur -6.87548 1.83591 18.2083
rtibia 45.7955
rfoot -12.2585 13.4294
rtoes -25.0496
lfemur -21.6661 -8.13905 -14.7867
ltibia 44.5479
lfoot -27.7678 -17.705
ltoes 17.8275
385
root -11.8248 17.3793 -0.714442 197.609 59.2705 194.312
lowerback 18.8603 1.81417 -0.791828
upperback 3.55268 2.57732 0.693273
thorax -6.78185 1.39655 0.5525
lowerneck -1.46199 -3.45218 4.50808
upperneck 1.69283 -4.70482 2.94018
head 0.721674 -2.26856 0.113219
rclavicle 2.98177e-014 -4.45278e-014
rhumerus -48.4624 1.45043 -77.4711
rradius 48.5883
rwrist -4.11276
rhand -11.9395 -18.547
rfingers 7.12502
rthumb 14.1153 -48.0476
lclavicle 2.98177e-014 -4.45278e-014
lhumerus -36.8028 -7.36698 53.3287
lradius 62.1187
lwrist -0.458252
lhand -6.41179 0.838912
lfingers 7.12502
lthumb 19.4365 29.8875
rfemur -7.78282 2.40004 17.6354
rtibia 47.1444
rfoot -13.0686 13.196
rtoes -24.827
lfemur -21.3379 -8.35172 -15.1584
ltibia 44.3864
lfoot -27.9053 -17.9792
ltoes 18.0785
386
root -11.7318 17.3738 -0.761939 197.1 58.7283 193.665
lowerback 18.9103 1.63793 -1.20833
upperback 3.62209 2.26035 0.566099
thorax -6.73687 1.25278 0.729669
lowerneck -1.4708 -3.57289 4.34519
upperneck 1.40543 -4.85505 3.34773
head 0.647792 -2.34682 0.264684
rclavicle 9.54166e-015 -1.59028e-014
rhumerus -48.2876 1.60847 -77.6341
rradius 48.5643
rwrist -3.89444
rhand -12.1919 -18.5866
rfingers 7.12502
rthumb 13.8721 -48.104
lclavicle 9.54166e-015 -1.59028e-014
lhumerus -35.2641 -7.21832 53.6075
lradius 62.2415
lwrist -0.694154
lhand -6.59073 0.703674
lfingers 7.12502
lthumb 19.2644 29.7695
rfemur -8.73342 2.91588 17.1842
rtibia 48.3533
rfoot -13.844 12.9496
rtoes -24.9859
lfemur -21.0707 -8.5912 -15.409
ltibia 44.2831
lfoot -28.0334 -18.2916
ltoes 18.3642
387
root -11.6401 17.3685 -0.810181 196.776 58.1339 193.213
lowerback 18.9613 1.43727 -1.48562
upperback 3.69073 1.94166 0.467104
thorax -6.68659 1.10557 0.858593
lowerneck -1.51437 -3.69331 4.19747
upperneck 1.16234 -5.00716 3.73412
head 0.593931 -2.4247 0.405759
rclavicle -2.74323e-014 2.06736e-014
rhumerus -48.1253 1.76966 -77.7892
rradius 48.5537
rwrist -3.63118
rhand -12.451 -18.5841
rfingers 7.12502
rthumb 13.6224 -48.1183
lclavicle -2.74323e-014 2.06736e-014
lhumerus -33.6939 -7.13447 53.9713
lradius 62.3641
lwrist -0.91738
lhand -6.7576 0.583374
lfingers 7.12502
lthumb 19.1039 29.6651
rfemur -9.72435 3.39568 16.861
rtibia 49.4058
rfoot -14.525 12.7931
rtoes -25.307
lfemur -20.8608 -8.85673 -15.5331
ltibia 44.2413
lfoot -28.1585 -18.6359
ltoes 18.6907
388
root -11.5498 17.363 -0.859543 196.608 57.501 192.931
lowerback 19.0167 1.21804 -1.64011
upperback 3.75728 1.62536 0.397159
thorax -6.63668 0.957272 0.948247
lowerneck -1.5793 -3.81565 4.06488
upperneck 0.953724 -5.16332 4.09537
head 0.554386 -2.50369 0.535991
rclavicle -4.37326e-014 3.65764e-014
rhumerus -47.9828 1.93328 -77.9248
rradius 48.5614
rwrist -3.34861
rhand -12.6673 -18.5378
rfingers 7.12502
rthumb 13.4139 -48.0859
lclavicle -4.37326e-014 3.65764e-014
lhumerus -32.1076 -7.13178 54.42
lradius 62.4911
lwrist -1.10901
lhand -6.91043 0.459943
lfingers 7.12502
lthumb 18.957 29.5562
rfemur -10.7499 3.84811 16.6495
rtibia 50.2941
rfoot -15.0867 12.7807
rtoes -25.6111
lfemur -20.6951 -9.1468 -15.547
ltibia 44.2546
lfoot -28.2834 -18.9987
ltoes 19.0537
389
root -11.4609 17.3573 -0.910331 196.554 56.8469 192.775
lowerback 19.0772 0.9845 -1.70093
upperback 3.82215 1.31094 0.354197
thorax -6.58912 0.808255 1.01303
lowerneck -1.65106 -3.93602 3.94513
upperneck 0.762392 -5.31711 4.42407
head 0.521013 -2.58133 0.654253
rclavicle -1.74931e-014 -3.49861e-014
rhumerus -47.8627 2.1069 -78.0356
rradius 48.5926
rwrist -3.05809
rhand -12.8439 -18.4452
rfingers 7.12502
rthumb 13.2436 -48.0045
lclavicle -1.74931e-014 -3.49861e-014
lhumerus -30.5249 -7.21451 54.952
lradius 62.6297
lwrist -1.27518
lhand -7.086 0.371897
lfingers 7.12502
lthumb 18.7881 29.4846
rfemur -11.8054 4.28276 16.525
rtibia 51.016
rfoot -15.5585 12.9179
rtoes -25.8679
lfemur -20.5576 -9.45371 -15.4803
ltibia 44.3079
lfoot -28.4051 -19.3696
ltoes 19.4506
